<svg xmlns="http://www.w3.org/2000/svg"><defs><symbol viewBox="0 0 20 20" class="" role="presentation" focusable="false" xmlns:svg="http://www.w3.org/2000/svg" xmlns:xlink="http://www.w3.org/1999/xlink" id="FxSymbol0-00b" data-type="1"><g><title></title><path d="M5.25 4a1.25 1.25 0 1 1-2.5 0 1.25 1.25 0 0 1 2.5 0m12 12a1.25 1.25 0 1 1-2.5 0 1.25 1.25 0 0 1 2.5 0M16 11.25a1.25 1.25 0 1 0 0-2.5 1.25 1.25 0 0 0 0 2.5M17.25 4a1.25 1.25 0 1 1-2.5 0 1.25 1.25 0 0 1 2.5 0M10 17.25a1.25 1.25 0 1 0 0-2.5 1.25 1.25 0 0 0 0 2.5M11.25 10a1.25 1.25 0 1 1-2.5 0 1.25 1.25 0 0 1 2.5 0M10 5.25a1.25 1.25 0 1 0 0-2.5 1.25 1.25 0 0 0 0 2.5M5.25 16a1.25 1.25 0 1 1-2.5 0 1.25 1.25 0 0 1 2.5 0M4 11.25a1.25 1.25 0 1 0 0-2.5 1.25 1.25 0 0 0 0 2.5"></path></g></symbol></defs></svg>