<svg xmlns="http://www.w3.org/2000/svg"><defs><symbol viewBox="0 0 20 20" class="" role="presentation" focusable="false" xmlns:svg="http://www.w3.org/2000/svg" xmlns:xlink="http://www.w3.org/1999/xlink" id="FxSymbol0-002" data-type="1"><g><title></title><path d="M5.927 2h6.212c1.054 0 1.981.694 2.278 1.705l.469 1.594c.161.546.64.933 1.199.982h.289c.888 0 1.573.252 2.027.768.443.503.589 1.17.599 1.839.019 1.321-.498 2.962-.909 4.268-.358 1.137-.819 2.318-1.436 3.222-.615.901-1.455 1.623-2.582 1.623H7.861a2.375 2.375 0 0 1-2.278-1.705l-.469-1.594a1.38 1.38 0 0 0-1.199-.982h-.29c-.888 0-1.573-.252-2.027-.768-.443-.503-.589-1.17-.599-1.839-.019-1.321.498-2.962.909-4.268.358-1.137.819-2.317 1.436-3.222C3.959 2.722 4.799 2 5.926 2ZM2.862 7.146c-.427 1.357-.879 2.828-.863 3.953.008.554.13.944.349 1.192.207.235.576.429 1.277.429h2.627c.609 0 1.146-.4 1.32-.985.47-1.577 1.266-4.239 1.894-6.276l.033-.107c.149-.484.293-.952.449-1.368.132-.354.281-.691.461-.985H5.927c-.644 0-1.221.402-1.756 1.187-.533.781-.958 1.848-1.308 2.959Zm2.872 6.574c.147.209.263.444.338.699l.469 1.594c.172.585.709.987 1.319.987h.026a.91.91 0 0 0 .754-.378c.167-.227.32-.543.474-.957.145-.386.281-.827.433-1.321l.03-.098.2-.651a2.4 2.4 0 0 1-.742.119H6.41a3 3 0 0 1-.159.005h-.518Zm2.459-1.005h.843c.553 0 1.047-.33 1.262-.83.437-1.446.871-2.896 1.171-3.905.075-.253.19-.487.337-.694h-.843c-.553 0-1.046.33-1.262.829a959 959 0 0 0-1.171 3.906c-.075.253-.19.487-.337.694m2.029-6.311c.235-.077.485-.119.742-.119h2.626a3 3 0 0 1 .158-.005h.518a2.4 2.4 0 0 1-.338-.699l-.469-1.594A1.375 1.375 0 0 0 12.14 3h-.015a.92.92 0 0 0-.765.378c-.167.227-.32.543-.474.957-.145.387-.281.827-.433 1.321l-.03.098-.2.65Zm6.916 6.451c.427-1.357.879-2.828.863-3.953-.008-.555-.13-.944-.349-1.192-.207-.235-.576-.429-1.277-.429h-2.627c-.609 0-1.146.4-1.32.985a778 778 0 0 1-1.894 6.276l-.033.107c-.149.484-.293.952-.449 1.368a5.7 5.7 0 0 1-.461.985h4.483c.644 0 1.221-.402 1.756-1.187.533-.781.958-1.848 1.308-2.959Z"></path></g></symbol></defs></svg>