<svg xmlns="http://www.w3.org/2000/svg"><defs><symbol viewBox="0 0 17 16" class="" role="presentation" focusable="false" xmlns:svg="http://www.w3.org/2000/svg" xmlns:xlink="http://www.w3.org/1999/xlink" id="FxSymbol0-003" data-type="1"><g><title></title><path fill="url(#15de5534-a8fb-4324-bdf9-e1f847fcf005)" d="M12.17 1.99A1.46 1.46 0 0 0 10.788 1h-.9c-.701 0-1.303.499-1.433 1.188l-.931 4.945.463-1.584a1.46 1.46 0 0 1 1.4-1.049h2.878l1.244 1.629L14.618 4.5h-.552c-.624 0-1.18-.398-1.38-.99z"></path><path fill="url(#15de5534-a8fb-4324-bdf9-e1f847fcf006)" d="M5.003 14.004c.199.595.756.996 1.383.996h1.466c.796 0 1.445-.638 1.458-1.434l.073-4.431-.385 1.317a1.46 1.46 0 0 1-1.4 1.048h-2.89l-1.23-1.085L2.57 11.5h.547c.628 0 1.184.401 1.383.996z"></path><path fill="url(#15de5534-a8fb-4324-bdf9-e1f847fcf008)" d="M10.5 1H4.668C3 1 2 3.202 1.334 5.405c-.79 2.609-1.823 6.099 1.167 6.099h2.69c.65 0 1.223-.431 1.402-1.058a770 770 0 0 1 1.855-6.402c.306-1.034.561-1.922.953-2.474.22-.31.585-.57 1.1-.57"></path><path fill="url(#15de5534-a8fb-4324-bdf9-e1f847fcf009)" d="M10.5 1H4.668C3 1 2 3.202 1.334 5.405c-.79 2.609-1.823 6.099 1.167 6.099h2.69c.65 0 1.223-.431 1.402-1.058a770 770 0 0 1 1.855-6.402c.306-1.034.561-1.922.953-2.474.22-.31.585-.57 1.1-.57"></path><path fill="url(#15de5534-a8fb-4324-bdf9-e1f847fcf007)" d="M6.5 15h5.832C14 15 15 12.798 15.665 10.596c.79-2.61 1.824-6.098-1.166-6.098h-2.69c-.651 0-1.223.43-1.402 1.057a772 772 0 0 1-1.855 6.401c-.306 1.034-.561 1.922-.953 2.475-.22.31-.586.569-1.1.569"></path><path fill="url(#15de5534-a8fb-4324-bdf9-e1f847fcf00a)" d="M6.5 15h5.832C14 15 15 12.798 15.665 10.596c.79-2.61 1.824-6.098-1.166-6.098h-2.69c-.651 0-1.223.43-1.402 1.057a772 772 0 0 1-1.855 6.401c-.306 1.034-.561 1.922-.953 2.475-.22.31-.586.569-1.1.569"></path><defs></defs></g></symbol></defs></svg>