<svg xmlns="http://www.w3.org/2000/svg"><defs><symbol viewBox="0 0 15.55 15.55" class="msportalfx-svg-palette-inherit" role="presentation" focusable="false" xmlns:svg="http://www.w3.org/2000/svg" xmlns:xlink="http://www.w3.org/1999/xlink" id="FxSymbol0-00f" data-type="46"><g><title></title><path d="M15.55 5.39c-.17.17-.34.33-.51.47a2.8 2.8 0 0 1-.5.37 2.7 2.7 0 0 1-.58.23 2.8 2.8 0 0 1-.69.08 3 3 0 0 1-.51 0l-3 3a6 6 0 0 1 .15.61 4.4 4.4 0 0 1 0 .63 3.8 3.8 0 0 1-.1.92 3.3 3.3 0 0 1-.29.78 3.6 3.6 0 0 1-.47.7 9 9 0 0 1-.61.68l-3-3-4.38 4.34-1.06.35.35-1.07 4.45-4.43-3-3 .35-.35a4.1 4.1 0 0 1 1.26-.84 3.9 3.9 0 0 1 1.48-.29 3.9 3.9 0 0 1 1.22.2l3-3a3 3 0 0 1 0-.51 3 3 0 0 1 .08-.69A2 2 0 0 1 9.32 1a3.5 3.5 0 0 1 .36-.5c.15-.16.3-.33.48-.5zm-2.28.15a1.8 1.8 0 0 0 .81-.2l-3.87-3.87a1.76 1.76 0 0 0-.2.81 1.4 1.4 0 0 0 .05.41c0 .13.07.26.11.4L6.33 6.92 6 6.77l-.34-.11a2.3 2.3 0 0 0-.36-.08 2.4 2.4 0 0 0-.39 0 3.2 3.2 0 0 0-.91.1 3.3 3.3 0 0 0-.77.38l5.25 5.26a2.9 2.9 0 0 0 .39-.78 2.7 2.7 0 0 0 .13-.85 2.6 2.6 0 0 0 0-.4 2.3 2.3 0 0 0-.08-.36 2.3 2.3 0 0 0-.12-.34 4 4 0 0 0-.15-.37l3.84-3.84.4.11a1.7 1.7 0 0 0 .38.05"></path></g></symbol></defs></svg>