<svg xmlns="http://www.w3.org/2000/svg"><defs><symbol viewBox="0 0 16 16" class="" role="presentation" focusable="false" xmlns:svg="http://www.w3.org/2000/svg" xmlns:xlink="http://www.w3.org/1999/xlink" id="FxSymbol0-001" data-type="1"><g><title></title><path d="M7.484 10.375a5.6 5.6 0 0 1 1.438.828 5.4 5.4 0 0 1 1.109 1.2 5.7 5.7 0 0 1 .711 1.461A5.5 5.5 0 0 1 11 15.5v.5h-1v-.5a4.4 4.4 0 0 0-.352-1.75 4.5 4.5 0 0 0-.968-1.43 4.7 4.7 0 0 0-1.43-.961A4.5 4.5 0 0 0 5.5 11a4.4 4.4 0 0 0-1.75.352 4.5 4.5 0 0 0-1.43.968 4.7 4.7 0 0 0-.961 1.43A4.5 4.5 0 0 0 1 15.5v.5H0v-.5a5.4 5.4 0 0 1 .969-3.1 5.7 5.7 0 0 1 1.109-1.187 5.6 5.6 0 0 1 1.438-.836 3.4 3.4 0 0 1-.633-.563 3.6 3.6 0 0 1-.477-.687 3.4 3.4 0 0 1-.3-.781A4 4 0 0 1 2 7.5a3.4 3.4 0 0 1 .273-1.359 3.53 3.53 0 0 1 1.86-1.86A3.5 3.5 0 0 1 5.5 4a3.4 3.4 0 0 1 1.359.273 3.53 3.53 0 0 1 1.86 1.86A3.5 3.5 0 0 1 9 7.5a3.4 3.4 0 0 1-.1.836 3.3 3.3 0 0 1-.3.781 4 4 0 0 1-.477.695 3 3 0 0 1-.639.563M5.5 10a2.4 2.4 0 0 0 .969-.2 2.5 2.5 0 0 0 .789-.532 2.6 2.6 0 0 0 .539-.8 2.48 2.48 0 0 0 .008-1.946 2.5 2.5 0 0 0-.539-.789 2.8 2.8 0 0 0-.8-.539A2.35 2.35 0 0 0 5.5 5a2.4 2.4 0 0 0-.969.2A2.54 2.54 0 0 0 3.2 6.531a2.5 2.5 0 0 0 0 1.938 2.6 2.6 0 0 0 .532.8 2.4 2.4 0 0 0 .8.539A2.5 2.5 0 0 0 5.5 10M16 0v8h-2l-3 3V8h-1V7h2v1.586L13.586 7H15V1H5v1.8a9 9 0 0 0-.5.078 3 3 0 0 0-.5.141V0Z"></path></g></symbol></defs></svg>