<svg xmlns:xlink="http://www.w3.org/1999/xlink" viewBox="0 0 18 18" xmlns="http://www.w3.org/2000/svg" class="svg_dd790ee3" width="18"  height="18" ><path d="M15 4H17V17H4V15H2V2H15V4ZM3 14H4V4H14V3H3V14ZM16 16V5H5V16H16ZM10.5 11.5C10.1562 11.5 9.83073 11.5677 9.52344 11.7031C9.22135 11.8333 8.95573 12.013 8.72656 12.2422C8.5026 12.4661 8.32552 12.7292 8.19531 13.0312C8.0651 13.3333 8 13.6562 8 14H7C7 13.6719 7.04427 13.3516 7.13281 13.0391C7.22656 12.7266 7.35677 12.4349 7.52344 12.1641C7.6901 11.888 7.89323 11.6406 8.13281 11.4219C8.3724 11.1979 8.64062 11.013 8.9375 10.8672C8.71875 10.6536 8.54948 10.4062 8.42969 10.125C8.3099 9.84375 8.25 9.55208 8.25 9.25C8.25 8.9375 8.30729 8.64583 8.42188 8.375C8.54167 8.09896 8.70312 7.85938 8.90625 7.65625C9.10938 7.45312 9.34635 7.29427 9.61719 7.17969C9.89323 7.0599 10.1875 7 10.5 7C10.8125 7 11.1042 7.0599 11.375 7.17969C11.651 7.29427 11.8906 7.45312 12.0938 7.65625C12.2969 7.85938 12.4557 8.09896 12.5703 8.375C12.6901 8.64583 12.75 8.9375 12.75 9.25C12.75 9.55208 12.6901 9.84375 12.5703 10.125C12.4505 10.4062 12.2812 10.6536 12.0625 10.8672C12.3594 11.013 12.6276 11.1979 12.8672 11.4219C13.1068 11.6406 13.3099 11.888 13.4766 12.1641C13.6432 12.4349 13.7708 12.7266 13.8594 13.0391C13.9531 13.3516 14 13.6719 14 14H13C13 13.6562 12.9323 13.3333 12.7969 13.0312C12.6667 12.7292 12.487 12.4661 12.2578 12.2422C12.0339 12.013 11.7708 11.8333 11.4688 11.7031C11.1667 11.5677 10.8438 11.5 10.5 11.5ZM9.25 9.25C9.25 9.42188 9.28125 9.58333 9.34375 9.73438C9.41146 9.88542 9.5026 10.0182 9.61719 10.1328C9.73177 10.2474 9.86458 10.3385 10.0156 10.4062C10.1667 10.4688 10.3281 10.5 10.5 10.5C10.6719 10.5 10.8333 10.4688 10.9844 10.4062C11.1354 10.3385 11.2682 10.2474 11.3828 10.1328C11.4974 10.0182 11.5859 9.88542 11.6484 9.73438C11.7161 9.58333 11.75 9.42188 11.75 9.25C11.75 9.07812 11.7161 8.91667 11.6484 8.76562C11.5859 8.61458 11.4974 8.48177 11.3828 8.36719C11.2682 8.2526 11.1354 8.16406 10.9844 8.10156C10.8333 8.03385 10.6719 8 10.5 8C10.3281 8 10.1667 8.03385 10.0156 8.10156C9.86458 8.16406 9.73177 8.2526 9.61719 8.36719C9.5026 8.48177 9.41146 8.61458 9.34375 8.76562C9.28125 8.91667 9.25 9.07812 9.25 9.25Z" fill="#323130"></path></svg>