<svg xmlns:xlink="http://www.w3.org/1999/xlink" viewBox="0 0 48 48" xmlns="http://www.w3.org/2000/svg" class="svg_dd790ee3" width="48"  height="48" ><path fill-rule="evenodd" clip-rule="evenodd" d="M36.4493 4.03027L36.4483 4.03125C38.6009 4.03181 40.1923 5.09531 41.0577 6.59668C41.895 8.04972 42.0309 9.8677 41.4561 11.4336L41.4551 11.4365L39.504 16.7305C41.4015 17.3376 42.906 18.8943 43.8086 20.6797C44.9814 22.9999 45.3447 25.9855 44.3995 28.6494L44.3975 28.6553L40.7793 38.6895C39.8135 41.786 36.8476 44 33.2979 44H12.835C10.497 44 8.72742 42.868 7.76176 41.25C6.83206 39.6919 6.67486 37.7252 7.38773 36.0127L9.11332 31.209C7.90662 30.8631 6.72202 30.2186 5.7393 29.3809C4.23156 28.0955 3.02249 26.2027 3.06351 23.9639C3.07923 23.1086 3.22982 22.2817 3.50101 21.5088L3.4932 21.5059L7.81547 9.09766L7.8223 9.08008L7.82914 9.06152C9.0432 5.88853 12.5402 4.00022 15.9073 4L36.4493 4.03027ZM29.6289 31.4912H11.669L9.7393 36.8584L9.72562 36.8955L9.71 36.9316C9.28562 37.9131 9.37178 39.0694 9.90824 39.9688C10.4223 40.8299 11.3763 41.5 12.835 41.5H33.2979C35.7957 41.5 37.7562 39.9741 38.3916 37.9326C38.5495 37.4094 38.6258 36.852 38.6016 36.2734L38.584 36.0273C38.3325 33.5059 36.0274 31.4924 33.2442 31.4922H29.6563V31.4902C29.6472 31.4903 29.6381 31.4912 29.6289 31.4912ZM35.2129 27.7139V27.7158C35.0176 28.2101 34.7601 28.6671 34.4522 29.0801C36.8801 29.4432 39.0264 30.8737 40.1905 32.9473L42.0459 27.8066C42.7324 25.8657 42.4797 23.5932 41.5772 21.8076C40.8381 20.3457 39.7685 19.3849 38.6104 19.0723L35.2129 27.7139ZM11.1914 18.9609C9.84195 18.9692 8.81123 19.2608 8.02347 19.7119C7.67207 19.9162 7.35553 20.1575 7.07523 20.4287C6.5881 20.9077 6.20784 21.4957 5.92191 22.1709C5.69812 22.7447 5.57535 23.3659 5.56351 24.0098C5.54025 25.2793 6.22993 26.514 7.36137 27.4785C8.46529 28.4195 9.82419 28.9553 10.9043 28.9883H29.71C29.7319 28.9878 29.7536 28.9862 29.7754 28.9854C31.1554 28.9203 32.3665 28.0639 32.8662 26.7998L35.9473 18.9609H11.1914ZM15.9053 6.5C13.3187 6.50042 10.9242 7.9684 10.1641 9.95508L7.67387 17.1025C8.65933 16.692 9.77771 16.461 11.0059 16.4609H11.2051C11.2201 16.4609 11.235 16.46 11.25 16.46H36.9327L39.1104 10.5693C39.4355 9.68095 39.349 8.6384 38.8916 7.84473C38.4619 7.09932 37.6854 6.53049 36.4473 6.53027H36.4454L15.9053 6.5Z" fill="#323130"></path></svg>